<svg xmlns="http://www.w3.org/2000/svg" xmlns:xlink="http://www.w3.org/1999/xlink" width="179" height="179" viewBox="0 0 179 179">
    <defs>
        <filter id="3q8sw2kb4a" width="527.9%" height="527.9%" x="-214%" y="-214%" filterUnits="objectBoundingBox">
            <feOffset dy="1" in="SourceAlpha" result="shadowOffsetOuter1"/>
            <feGaussianBlur in="shadowOffsetOuter1" result="shadowBlurOuter1" stdDeviation="23.5"/>
            <feColorMatrix in="shadowBlurOuter1" result="shadowMatrixOuter1" values="0 0 0 0 0 0 0 0 0 0 0 0 0 0 0 0 0 0 0.05 0"/>
            <feMerge>
                <feMergeNode in="shadowMatrixOuter1"/>
                <feMergeNode in="SourceGraphic"/>
            </feMerge>
        </filter>
        <path id="7i08n6hasb" d="M43 21.5C43 33.374 33.374 43 21.5 43S0 33.374 0 21.5 9.626 0 21.5 0 43 9.626 43 21.5z"/>
    </defs>
    <g fill="none" fill-rule="evenodd">
        <g>
            <g>
                <g>
                    <g filter="url(#3q8sw2kb4a)" transform="translate(-246.000000, -680.000000) translate(2.000000, 726.000000) translate(20.000000, 22.000000) translate(292.000000, 0.000000)">
                        <path d="M0 0L43 0 43 43 0 43z"/>
                        <g>
                            <mask id="ej5gk8r81c" fill="#fff">
                                <use xlink:href="#7i08n6hasb"/>
                            </mask>
                            <path fill="#FFF" d="M43 21.5C43 33.374 33.374 43 21.5 43S0 33.374 0 21.5 9.626 0 21.5 0 43 9.626 43 21.5z" mask="url(#ej5gk8r81c)"/>
                            <path fill="#F2F2F2" d="M21.128 43.997C8.873 43.798-1 33.802-1 21.5l.003-.372C-.798 8.873 9.198-1 21.5-1l.372.003C34.127-.798 44 9.198 44 21.5l-.003.372C43.798 34.127 33.802 44 21.5 44zm.718-2C33.008 41.812 42 32.707 42 21.5l-.003-.346C41.812 9.992 32.707 1 21.5 1l-.346.003C9.992 1.188 1 10.293 1 21.5l.003.346C1.188 33.008 10.293 42 21.5 42z" mask="url(#ej5gk8r81c)"/>
                        </g>
                        <g>
                            <path d="M0 0L21.061 0 21.061 21.061 0 21.061z" transform="translate(10.530000, 10.530000)"/>
                            <path fill="#333" d="M7.123 12.912l3.405-3.405 3.405 3.405c.342.342.895.342 1.237 0 .342-.342.342-.895 0-1.237l-4.028-4.028c-.342-.343-.895-.343-1.237 0l-4.028 4.028c-.343.342-.343.895 0 1.237.342.333.904.342 1.246 0z" transform="translate(10.530000, 10.530000)"/>
                        </g>
                    </g>
                </g>
            </g>
        </g>
    </g>
</svg>
